<svg width="12" height="12" viewBox="0 0 12 12" fill="none" xmlns="http://www.w3.org/2000/svg">
<rect width="12" height="12" fill="#D11F74"/>
<path d="M7.36116 4.33131C8.01873 4.11764 8.72475 4.47747 8.93842 5.13491H8.93843C9.15197 5.79233 8.79226 6.49852 8.13495 6.71206C8.09476 6.72512 8.05426 6.7352 8.0138 6.74392C8.04141 6.77492 8.06819 6.80678 8.09307 6.84099C8.49947 7.40019 8.3754 8.18296 7.81624 8.58927C7.25682 8.99551 6.47412 8.87152 6.06784 8.31232C6.04293 8.27815 6.02092 8.24282 6.00013 8.20696C5.97929 8.24282 5.95723 8.27811 5.9324 8.31232C5.52612 8.87161 4.74321 8.99559 4.18401 8.58927C3.62471 8.18287 3.50074 7.40019 3.90705 6.84099C3.93192 6.80678 3.95875 6.77483 3.98632 6.74392C3.94586 6.7352 3.90536 6.72512 3.86507 6.71206C3.20771 6.49858 2.84801 5.7924 3.0616 5.13491C3.27519 4.47742 3.9813 4.11769 4.63875 4.33131C4.67899 4.34442 4.71762 4.36 4.75548 4.37676C4.75131 4.33552 4.74831 4.29398 4.74831 4.25165C4.74831 3.56043 5.30871 3 5.99996 3C6.69108 3 7.2515 3.56044 7.2515 4.25165C7.2515 4.29398 7.24855 4.33556 7.24443 4.37676C7.28219 4.36 7.32096 4.34438 7.36116 4.33131Z" fill="#FFFDFB"/>
</svg>
